<?xml version="1.0" standalone="no"?>
<!DOCTYPE svg PUBLIC "-//W3C//DTD SVG 20010904//EN"
 "http://www.w3.org/TR/2001/REC-SVG-20010904/DTD/svg10.dtd">
<svg version="1.0" xmlns="http://www.w3.org/2000/svg"
 width="400.000000pt" height="167.000000pt" viewBox="0 0 400.000000 167.000000"
 preserveAspectRatio="xMidYMid meet">

<g transform="translate(0.000000,167.000000) scale(0.100000,-0.100000)"
fill="#000000" stroke="none">
<path d="M0 835 l0 -835 2000 0 2000 0 0 835 0 835 -2000 0 -2000 0 0 -835z
m1264 576 c194 -85 243 -350 90 -491 -24 -22 -55 -45 -69 -52 l-24 -11 44 -29
c91 -60 137 -145 138 -253 1 -84 -25 -150 -81 -208 -56 -58 -105 -80 -194 -85
-69 -4 -84 -2 -132 22 -37 18 -74 48 -113 94 -90 103 -93 110 -25 57 108 -85
148 -108 202 -113 74 -7 137 14 186 63 50 51 68 99 62 171 -12 142 -172 229
-296 162 -23 -13 -133 -113 -244 -224 -241 -239 -270 -258 -393 -258 -94 -1
-157 23 -218 82 -66 63 -91 124 -91 217 0 67 4 88 26 131 27 52 90 116 133
136 24 11 24 11 -18 38 -49 31 -89 76 -120 134 -16 32 -21 58 -21 121 0 92 20
143 83 208 60 64 103 82 201 82 124 0 163 -23 280 -165 48 -59 42 -56 -72 31
-102 79 -160 94 -249 68 -147 -45 -199 -233 -95 -347 52 -58 156 -79 232 -47
22 9 120 98 248 223 207 205 240 232 321 259 52 17 152 10 209 -16z m592 -28
c83 -44 119 -113 118 -228 0 -54 -6 -83 -26 -126 -48 -105 -123 -139 -305
-139 l-113 0 0 261 0 261 143 -4 c122 -3 148 -6 183 -25z m990 8 c22 -10 50
-31 62 -45 44 -56 37 -165 -14 -225 -27 -33 -102 -61 -161 -61 l-33 0 0 -85 0
-85 -70 0 -70 0 0 260 0 260 123 0 c97 0 130 -4 163 -19z m314 -186 l0 -205
100 0 100 0 0 -55 0 -55 -170 0 -170 0 0 260 0 260 70 0 70 0 0 -205z m577 63
c22 -14 48 -43 58 -65 24 -49 31 -132 15 -187 -47 -167 -298 -182 -371 -21
-34 74 -20 193 29 249 55 61 194 74 269 24z m-1537 -108 c0 -117 2 -132 20
-150 26 -26 36 -25 65 5 24 23 25 30 25 150 l0 125 70 0 70 0 0 -200 0 -200
-50 0 c-45 0 -52 3 -60 26 l-10 26 -30 -26 c-43 -36 -106 -43 -162 -18 -69 30
-78 59 -78 241 l0 151 70 0 70 0 0 -130z m294 -426 c19 -18 20 -28 6 -55 -8
-14 -21 -19 -50 -19 -38 0 -60 18 -60 49 0 19 32 41 60 41 16 0 36 -7 44 -16z
m637 6 c22 -12 25 -52 5 -69 -8 -7 -32 -11 -53 -9 -33 3 -38 6 -41 31 -6 50
39 73 89 47z m-1483 -222 l2 -198 -55 0 -55 0 0 201 0 200 53 -3 52 -3 3 -197z
m692 157 l0 -45 -66 0 -65 0 3 -37 3 -38 58 -3 57 -3 0 -39 0 -40 -60 0 -60 0
0 -75 0 -75 -55 0 -55 0 0 193 c0 107 3 197 7 200 3 4 57 7 120 7 l113 0 0
-45z m449 -88 c37 -70 70 -129 72 -131 2 -2 4 55 4 127 l0 132 48 3 47 3 0
-201 0 -201 -72 3 -72 3 -66 127 c-36 70 -68 130 -71 132 -2 2 -3 -56 -1 -130
l4 -134 -51 0 -51 0 0 193 c0 107 3 197 7 201 4 4 36 6 71 4 l64 -3 67 -128z
m709 86 l3 -43 -50 0 -51 0 0 -155 0 -155 -55 0 -55 0 0 155 0 155 -45 0 -45
0 0 45 0 46 148 -3 147 -3 3 -42z m-1685 -64 l6 -21 27 21 c41 32 105 29 146
-8 l33 -29 4 -126 3 -126 -56 0 -56 0 0 98 c0 115 -12 143 -52 125 -30 -13
-38 -46 -38 -149 l0 -74 -50 0 -50 0 0 155 0 155 39 0 c31 0 40 -4 44 -21z
m687 -134 l0 -155 -50 0 -50 0 0 155 0 155 50 0 50 0 0 -155z m648 -2 l3 -153
-56 0 -55 0 0 156 0 155 53 -3 52 -3 3 -152z m623 134 c66 -44 87 -132 50
-214 -24 -52 -68 -77 -138 -77 -57 0 -90 17 -127 67 -25 34 -28 128 -6 172 37
73 150 100 221 52z"/>
<path d="M1062 1305 c-19 -8 -130 -109 -248 -225 -136 -134 -230 -218 -258
-232 l-44 -21 38 -26 c34 -23 169 -171 157 -171 -3 0 -39 27 -80 59 -96 76
-128 92 -196 98 -47 4 -64 0 -111 -24 -77 -39 -113 -93 -118 -177 -3 -49 0
-71 16 -103 55 -106 179 -148 282 -93 14 7 120 106 236 221 122 119 229 216
254 229 l42 22 -34 23 c-29 19 -83 78 -147 160 -19 24 -17 22 92 -63 42 -34
94 -66 115 -72 117 -32 232 22 280 133 28 65 4 175 -49 224 -56 51 -158 68
-227 38z"/>
<path d="M1680 1155 l0 -145 39 0 c70 0 111 56 111 153 0 83 -49 137 -125 137
l-25 0 0 -145z"/>
<path d="M2700 1240 c0 -59 0 -60 28 -60 37 0 62 28 62 69 0 25 -6 34 -26 41
-56 22 -64 16 -64 -50z"/>
<path d="M3589 1181 c-18 -14 -23 -30 -26 -77 -5 -79 11 -109 57 -109 46 0 62
30 57 109 -3 47 -8 63 -26 77 -29 23 -33 23 -62 0z"/>
<path d="M3650 524 c-30 -78 13 -161 61 -118 21 19 26 92 9 125 -16 29 -58 25
-70 -7z"/>
</g>
</svg>
